<svg xmlns="http://www.w3.org/2000/svg" xmlns:xlink="http://www.w3.org/1999/xlink" id="emoji" x="0" y="0" enable-background="new 0 0 72 72" version="1.1" viewBox="0 0 72 72" xml:space="preserve"><g id="_xD83C__xDFC1__1_"><rect width="6" height="6" x="22.4" y="17.3" fill="#FFF"/><rect width="6" height="6" x="22.4" y="23.3"/><polygon fill="#FFF" points="28.4 33.9 22.4 35.3 22.4 29.3 28.4 29.3"/><rect width="6" height="6" x="28.4" y="17.3"/><rect width="6" height="6" x="28.4" y="23.3" fill="#FFF"/><rect width="6" height="5.1" x="28.4" y="29.3"/><rect width="6" height="6" x="34.4" y="17.3" fill="#FFF"/><polygon points="28.4 17.3 22.4 17.3 23 16.6 28.4 16"/><rect width="6" height="2.3" x="28.4" y="15" fill="#FFF"/><polygon points="40.4 17.3 34.4 17.3 34.4 15.6 40.4 16.6"/><rect width="6" height="6" x="34.4" y="23.3"/><polygon fill="#FFF" points="40.4 35.3 34.4 33.8 34.4 29.3 40.4 29.3"/><polygon points="46.4 23.3 40.4 23.3 40.4 18.6 46.4 20"/><rect width="6" height="6" x="40.4" y="23.3" fill="#FFF"/><rect width="6" height="6" x="40.4" y="29.3"/><rect width="6" height="3" x="46.4" y="20.3" fill="#FFF"/><rect width="6" height="6" x="46.4" y="23.3"/><rect width="6" height="6" x="46.4" y="29.3" fill="#FFF"/><rect width="1.7" height="3" x="52.4" y="20.3"/><rect width="1.7" height="6" x="52.4" y="23.3" fill="#FFF"/><rect width="1.9" height="6" x="52.4" y="29.3"/><rect width="6" height="1.9" x="40.4" y="35.3" fill="#FFF"/><rect width="6" height="3.5" x="46.4" y="35.3"/><rect width="2.1" height="2.4" x="52.4" y="35.3" fill="#FFF"/><path fill="none" stroke="#000" stroke-linecap="round" stroke-linejoin="round" stroke-miterlimit="10" stroke-width="2" d="M23.1,17.5c2.9-1.8,8.4-4.2,14.4-1.5c3.7,1.7,5.6,4.7,15,4.1c0.8,0,1.5,0.6,1.5,1.4c0,3.3,0,11.1,0,15.1c0,0.6-0.4,1.1-1,1.4 c-1.9,1-7.3,0.9-15.5-3c-3.4-1.6-8.6-2.6-14.5,1.4"/><line x1="19.3" x2="19.3" y1="12.9" y2="59.8" fill="none" stroke="#000" stroke-linecap="round" stroke-miterlimit="10" stroke-width="2"/></g></svg>